<svg width="110" height="21" viewBox="0 0 110 21" fill="none" xmlns="http://www.w3.org/2000/svg">
<path d="M5.50756 4.78552V8.33244H16.9276V12.6113H5.50756V20.4933H0V0.506703H17.6296V4.78552H5.50756Z" fill="black"/>
<path d="M29.7368 21C27.325 21 25.2642 20.559 23.5543 19.6769C21.8625 18.7949 20.5756 17.5657 19.6936 15.9893C18.8297 14.4129 18.3977 12.5831 18.3977 10.5C18.3977 8.41689 18.8297 6.58713 19.6936 5.01073C20.5756 3.43432 21.8625 2.20509 23.5543 1.32306C25.2642 0.441019 27.325 0 29.7368 0C32.1486 0 34.2005 0.441019 35.8923 1.32306C37.6022 2.20509 38.8891 3.43432 39.753 5.01073C40.6349 6.58713 41.0759 8.41689 41.0759 10.5C41.0759 12.5831 40.6349 14.4129 39.753 15.9893C38.8891 17.5657 37.6022 18.7949 35.8923 19.6769C34.2005 20.559 32.1486 21 29.7368 21ZM29.7368 16.7212C31.5547 16.7212 32.9316 16.1957 33.8675 15.1448C34.8214 14.0938 35.2984 12.7239 35.2984 11.0349V9.96515C35.2984 8.27614 34.8214 6.90617 33.8675 5.85523C32.9316 4.80429 31.5547 4.27882 29.7368 4.27882C27.919 4.27882 26.5331 4.80429 25.5792 5.85523C24.6432 6.90617 24.1753 8.27614 24.1753 9.96515V11.0349C24.1753 12.7239 24.6432 14.0938 25.5792 15.1448C26.5331 16.1957 27.919 16.7212 29.7368 16.7212Z" fill="black"/>
<path d="M52.8683 13.8499H47.9817V20.4933H42.4741V0.506703H55.703C57.1069 0.506703 58.3308 0.797588 59.3747 1.37936C60.4187 1.96113 61.2196 2.75871 61.7775 3.77212C62.3355 4.78552 62.6145 5.92091 62.6145 7.17828C62.6145 8.64209 62.2455 9.89946 61.5076 10.9504C60.7696 12.0013 59.7257 12.7426 58.3758 13.1743L63.4514 20.4933H57.2149L52.8683 13.8499ZM47.9817 9.57105H54.3261C55.1721 9.57105 55.838 9.38338 56.324 9.00804C56.8279 8.61394 57.0799 8.06032 57.0799 7.34719V7.00938C57.0799 6.29625 56.8369 5.75201 56.351 5.37668C55.865 4.98257 55.1901 4.78552 54.3261 4.78552H47.9817V9.57105Z" fill="black"/>
<path d="M110 0.506703V20.4933H84.802V5.71448L79.7535 20.4933H74.7319L69.4403 5.43298V20.4933H64.0407V0.506703H72.545L77.2966 14.244L81.9133 0.506703H110Z" fill="black"/>
</svg>
