<svg width="110" height="21" viewBox="0 0 110 21" fill="none" xmlns="http://www.w3.org/2000/svg">
<path fill-rule="evenodd" clip-rule="evenodd" d="M108.99 0.506702H106.877L108.625 3.49718L108.99 0.506702ZM104.779 0.506702H100.166L106 4.70955L104.779 0.506702ZM98.7428 0.506702H81.9133L77.2966 14.244L72.545 0.506702H64.0407V20.4933H69.4403V5.43298L74.7319 20.4933H79.7535L84.802 5.71448V20.4933H102.181L104.927 15.3053L94.3961 19.8922L103.49 12.7239L92.0717 12.4705L103.19 9.75951L92.858 4.70955L104.078 6.92466L98.7428 0.506702ZM104.138 20.4933H106.974L107.251 17.0573L104.138 20.4933ZM109.115 20.4933H110V17.8591L109.115 20.4933ZM23.5543 19.6769C25.2642 20.559 27.325 21 29.7368 21C32.1486 21 34.2005 20.559 35.8923 19.6769C37.6022 18.7949 38.8891 17.5657 39.753 15.9893C40.6349 14.4129 41.0759 12.5831 41.0759 10.5C41.0759 8.41689 40.6349 6.58713 39.753 5.01072C38.8891 3.43432 37.6022 2.20509 35.8923 1.32306C34.2005 0.441019 32.1486 0 29.7368 0C27.325 0 25.2642 0.441019 23.5543 1.32306C21.8625 2.20509 20.5756 3.43432 19.6936 5.01072C18.8297 6.58713 18.3977 8.41689 18.3977 10.5C18.3977 12.5831 18.8297 14.4129 19.6936 15.9893C20.5756 17.5657 21.8625 18.7949 23.5543 19.6769ZM33.8675 15.1448C32.9316 16.1957 31.5547 16.7212 29.7368 16.7212C27.919 16.7212 26.5331 16.1957 25.5792 15.1448C24.6432 14.0938 24.1753 12.7239 24.1753 11.0349V9.96515C24.1753 8.27614 24.6432 6.90617 25.5792 5.85523C26.5331 4.80429 27.919 4.27882 29.7368 4.27882C31.5547 4.27882 32.9316 4.80429 33.8675 5.85523C34.8214 6.90617 35.2984 8.27614 35.2984 9.96515V11.0349C35.2984 12.7239 34.8214 14.0938 33.8675 15.1448ZM5.50756 8.33244V4.78552H17.6296V0.506702H0V20.4933H5.50756V12.6113H16.9276V8.33244H5.50756ZM52.8683 13.8499H47.9817V20.4933H42.4741V0.506702H55.703C57.1069 0.506702 58.3308 0.797587 59.3747 1.37936C60.4187 1.96113 61.2196 2.75871 61.7775 3.77212C62.3355 4.78552 62.6145 5.92091 62.6145 7.17828C62.6145 8.64209 62.2455 9.89946 61.5076 10.9504C60.7696 12.0013 59.7257 12.7426 58.3758 13.1743L63.4514 20.4933H57.2149L52.8683 13.8499ZM47.9817 9.57104H54.3261C55.1721 9.57104 55.838 9.38338 56.324 9.00804C56.8279 8.61394 57.0799 8.06032 57.0799 7.34718V7.00938C57.0799 6.29625 56.8369 5.75201 56.351 5.37668C55.865 4.98257 55.1901 4.78552 54.3261 4.78552H47.9817V9.57104Z" fill="black"/>
</svg>
