<svg width="353" height="77" viewBox="0 0 353 77" fill="none" xmlns="http://www.w3.org/2000/svg">
<path d="M343.75 0V76.5" stroke="#A9A9A9" stroke-width="0.5"/>
<path d="M0 67.6504L352.5 67.6504" stroke="#A9A9A9" stroke-width="0.5"/>
<path d="M0 9.23045L352.5 9.23045" stroke="#A9A9A9" stroke-width="0.5"/>
<path d="M335.4 67.5V76.5" stroke="#A9A9A9" stroke-width="0.5"/>
<path d="M235 67.5V76.5" stroke="#A9A9A9" stroke-width="0.5"/>
<path d="M226.65 67.5V76.5" stroke="#A9A9A9" stroke-width="0.5"/>
<path d="M126.35 67.5V76.5" stroke="#A9A9A9" stroke-width="0.5"/>
<path d="M118 67.5V76.5" stroke="#A9A9A9" stroke-width="0.5"/>
<path d="M17.59 67.5V76.5" stroke="#A9A9A9" stroke-width="0.5"/>
<path d="M9.23999 0V76.4997" stroke="#A9A9A9" stroke-width="0.5"/>
<path d="M285 61.7998H295" stroke="#A9A9A9" stroke-width="0.5"/>
<path d="M293 60V69.5" stroke="#A9A9A9" stroke-width="0.5"/>
<mask id="mask0_222_499" style="mask-type:alpha" maskUnits="userSpaceOnUse" x="9" y="9" width="335" height="59">
<path fill-rule="evenodd" clip-rule="evenodd" d="M17.3757 9H335.617L343.99 9.00003V67.7998H335.616C335.616 39.7014 313.192 17.5676 285.503 17.4933H285.231C257.542 17.5676 235.119 39.7014 235.119 67.7998H226.745V17.4933L226.744 17.4933L226.745 67.7998C226.745 39.7014 204.32 17.5676 176.631 17.4933H176.359C148.67 17.5676 126.246 39.7014 126.246 67.7998H117.873C117.873 39.7014 95.4492 17.5676 67.7601 17.4933H67.4885C39.7994 17.5676 17.3748 39.7014 17.3748 67.7998L17.3757 17.4931L17.3757 9ZM9 9.00003V67.7998H17.3748L17.3757 9L9 9.00003ZM285.367 67.8C287.146 67.8 288.588 66.3375 288.588 64.5333C288.588 62.7292 287.146 61.2667 285.367 61.2667C283.588 61.2667 282.146 62.7292 282.146 64.5333C282.146 66.3375 283.588 67.8 285.367 67.8Z" fill="black"/>
</mask>
<g mask="url(#mask0_222_499)">
<path fill-rule="evenodd" clip-rule="evenodd" d="M31.7126 32.5984L8.74438 9.48858L8.91356 9.31836L31.8818 32.4282L31.7126 32.5984Z" fill="#A9A9A9"/>
<path fill-rule="evenodd" clip-rule="evenodd" d="M43.6752 44.6348L8.74438 9.48858L8.91356 9.31836L43.8444 44.4646L43.6752 44.6348Z" fill="#A9A9A9"/>
<path fill-rule="evenodd" clip-rule="evenodd" d="M43.6752 42.71L8.74438 7.56377L8.91356 7.39355L43.8444 42.5398L43.6752 42.71Z" fill="#A9A9A9"/>
<path fill-rule="evenodd" clip-rule="evenodd" d="M43.6752 40.7823L8.74438 5.63604L8.91356 5.46582L43.8444 40.612L43.6752 40.7823Z" fill="#A9A9A9"/>
<path fill-rule="evenodd" clip-rule="evenodd" d="M43.6752 38.8584L8.74438 3.71221L8.91356 3.54199L43.8444 38.6882L43.6752 38.8584Z" fill="#A9A9A9"/>
<path fill-rule="evenodd" clip-rule="evenodd" d="M43.6752 36.9317L8.74438 1.78545L8.91356 1.61523L43.8444 36.7615L43.6752 36.9317Z" fill="#A9A9A9"/>
<path fill-rule="evenodd" clip-rule="evenodd" d="M43.6752 35.0049L8.74438 -0.141303L8.91356 -0.311523L43.8444 34.8347L43.6752 35.0049Z" fill="#A9A9A9"/>
<path fill-rule="evenodd" clip-rule="evenodd" d="M43.6752 33.0801L8.74438 -2.06611L8.91356 -2.23633L43.8444 32.9099L43.6752 33.0801Z" fill="#A9A9A9"/>
<path fill-rule="evenodd" clip-rule="evenodd" d="M43.6752 31.1563L8.74438 -3.98994L8.91356 -4.16016L43.8444 30.9861L43.6752 31.1563Z" fill="#A9A9A9"/>
<path fill-rule="evenodd" clip-rule="evenodd" d="M43.6752 29.2266L8.74438 -5.91962L8.91356 -6.08984L43.8444 29.0564L43.6752 29.2266Z" fill="#A9A9A9"/>
<path fill-rule="evenodd" clip-rule="evenodd" d="M43.6752 27.3028L8.74438 -7.84345L8.91356 -8.01367L43.8444 27.1326L43.6752 27.3028Z" fill="#A9A9A9"/>
<path fill-rule="evenodd" clip-rule="evenodd" d="M43.6752 25.378L8.74438 -9.76826L8.91356 -9.93848L43.8444 25.2077L43.6752 25.378Z" fill="#A9A9A9"/>
<path fill-rule="evenodd" clip-rule="evenodd" d="M58.7481 38.617L8.74438 -11.695L8.91356 -11.8652L58.9173 38.4468L58.7481 38.617Z" fill="#A9A9A9"/>
<path fill-rule="evenodd" clip-rule="evenodd" d="M58.7481 36.6903L8.74438 -13.6218L8.91356 -13.792L58.9173 36.5201L58.7481 36.6903Z" fill="#A9A9A9"/>
<path fill-rule="evenodd" clip-rule="evenodd" d="M58.7481 34.7674L8.74438 -15.5446L8.91356 -15.7148L58.9173 34.5972L58.7481 34.7674Z" fill="#A9A9A9"/>
<path fill-rule="evenodd" clip-rule="evenodd" d="M58.7481 32.8397L8.74438 -17.4724L8.91356 -17.6426L58.9173 32.6695L58.7481 32.8397Z" fill="#A9A9A9"/>
<path fill-rule="evenodd" clip-rule="evenodd" d="M58.7481 30.9139L8.74438 -19.3981L8.91356 -19.5684L58.9173 30.7437L58.7481 30.9139Z" fill="#A9A9A9"/>
<path fill-rule="evenodd" clip-rule="evenodd" d="M58.7481 28.9872L8.74438 -21.3249L8.91356 -21.4951L58.9173 28.8169L58.7481 28.9872Z" fill="#A9A9A9"/>
<path fill-rule="evenodd" clip-rule="evenodd" d="M58.7481 27.0604L8.74438 -23.2517L8.91356 -23.4219L58.9173 26.8902L58.7481 27.0604Z" fill="#A9A9A9"/>
<path fill-rule="evenodd" clip-rule="evenodd" d="M58.7481 25.1366L8.74438 -25.1755L8.91356 -25.3457L58.9173 24.9664L58.7481 25.1366Z" fill="#A9A9A9"/>
<path fill-rule="evenodd" clip-rule="evenodd" d="M58.7481 23.2098L8.74438 -27.1022L8.91356 -27.2725L58.9173 23.0396L58.7481 23.2098Z" fill="#A9A9A9"/>
<path fill-rule="evenodd" clip-rule="evenodd" d="M63.7714 26.3381L44.8705 7.32061L45.0397 7.15039L63.9406 26.1679L63.7714 26.3381Z" fill="#A9A9A9"/>
<path fill-rule="evenodd" clip-rule="evenodd" d="M63.7714 24.4143L44.8705 5.39678L45.0397 5.22656L63.9406 24.244L63.7714 24.4143Z" fill="#A9A9A9"/>
<path fill-rule="evenodd" clip-rule="evenodd" d="M63.7714 22.4904L44.8705 3.47295L45.0397 3.30273L63.9406 22.3202L63.7714 22.4904Z" fill="#A9A9A9"/>
<path fill-rule="evenodd" clip-rule="evenodd" d="M63.7714 20.5607L44.8705 1.54327L45.0397 1.37305L63.9406 20.3905L63.7714 20.5607Z" fill="#A9A9A9"/>
<path fill-rule="evenodd" clip-rule="evenodd" d="M108.99 64.1344L44.8705 -0.380561L45.0397 -0.550781L109.159 63.9642L108.99 64.1344Z" fill="#A9A9A9"/>
<path fill-rule="evenodd" clip-rule="evenodd" d="M108.99 62.2086L44.8705 -2.30634L45.0397 -2.47656L109.159 62.0384L108.99 62.2086Z" fill="#A9A9A9"/>
<path fill-rule="evenodd" clip-rule="evenodd" d="M108.99 60.2828L44.8705 -4.23212L45.0397 -4.40234L109.159 60.1126L108.99 60.2828Z" fill="#A9A9A9"/>
<path fill-rule="evenodd" clip-rule="evenodd" d="M118.56 67.9852L44.8705 -6.15888L45.0397 -6.3291L118.729 67.815L118.56 67.9852Z" fill="#A9A9A9"/>
<path fill-rule="evenodd" clip-rule="evenodd" d="M120.713 68.2279L44.8705 -8.08271L45.0397 -8.25293L120.883 68.0577L120.713 68.2279Z" fill="#A9A9A9"/>
<path fill-rule="evenodd" clip-rule="evenodd" d="M122.388 67.9853L44.8705 -10.0104L45.0397 -10.1807L122.557 67.815L122.388 67.9853Z" fill="#A9A9A9"/>
<path fill-rule="evenodd" clip-rule="evenodd" d="M124.542 68.227L44.8705 -11.9352L45.0397 -12.1055L124.711 68.0568L124.542 68.227Z" fill="#A9A9A9"/>
<path fill-rule="evenodd" clip-rule="evenodd" d="M132.198 74.0035L44.8705 -13.862L45.0397 -14.0322L132.367 73.8333L132.198 74.0035Z" fill="#A9A9A9"/>
<path fill-rule="evenodd" clip-rule="evenodd" d="M136.504 76.4089L44.8705 -15.7897L45.0397 -15.96L136.673 76.2387L136.504 76.4089Z" fill="#A9A9A9"/>
<path fill-rule="evenodd" clip-rule="evenodd" d="M131.719 69.6725L44.8705 -17.7116L45.0397 -17.8818L131.888 69.5023L131.719 69.6725Z" fill="#A9A9A9"/>
<path fill-rule="evenodd" clip-rule="evenodd" d="M136.983 71.1159L44.8705 -21.5642L45.0397 -21.7344L137.152 70.9457L136.983 71.1159Z" fill="#A9A9A9"/>
<path fill-rule="evenodd" clip-rule="evenodd" d="M133.394 69.4289L44.8705 -19.6403L45.0397 -19.8105L133.563 69.2587L133.394 69.4289Z" fill="#A9A9A9"/>
<path fill-rule="evenodd" clip-rule="evenodd" d="M136.026 68.2262L44.8705 -23.4909L45.0397 -23.6611L136.195 68.056L136.026 68.2262Z" fill="#A9A9A9"/>
<path fill-rule="evenodd" clip-rule="evenodd" d="M128.37 58.5952L44.8705 -25.4186L45.0397 -25.5889L128.539 58.425L128.37 58.5952Z" fill="#A9A9A9"/>
<path fill-rule="evenodd" clip-rule="evenodd" d="M137.7 66.0608L44.8705 -27.3415L45.0397 -27.5117L137.87 65.8906L137.7 66.0608Z" fill="#A9A9A9"/>
<path fill-rule="evenodd" clip-rule="evenodd" d="M144.64 71.1134L81.7169 7.80206L81.8861 7.63184L144.809 70.9432L144.64 71.1134Z" fill="#A9A9A9"/>
<path fill-rule="evenodd" clip-rule="evenodd" d="M144.64 69.1915L81.7169 5.88018L81.8861 5.70996L144.809 69.0213L144.64 69.1915Z" fill="#A9A9A9"/>
<path fill-rule="evenodd" clip-rule="evenodd" d="M144.64 67.2608L81.7169 3.94952L81.8861 3.7793L144.809 67.0906L144.64 67.2608Z" fill="#A9A9A9"/>
<path fill-rule="evenodd" clip-rule="evenodd" d="M144.64 65.338L81.7169 2.02667L81.8861 1.85645L144.809 65.1678L144.64 65.338Z" fill="#A9A9A9"/>
<path fill-rule="evenodd" clip-rule="evenodd" d="M144.64 63.4122L81.7169 0.100884L81.8861 -0.0693359L144.809 63.242L144.64 63.4122Z" fill="#A9A9A9"/>
<path fill-rule="evenodd" clip-rule="evenodd" d="M144.64 61.4845L81.7169 -1.82685L81.8861 -1.99707L144.809 61.3143L144.64 61.4845Z" fill="#A9A9A9"/>
<path fill-rule="evenodd" clip-rule="evenodd" d="M144.64 59.5616L81.7169 -3.7497L81.8861 -3.91992L144.809 59.3914L144.64 59.5616Z" fill="#A9A9A9"/>
<path fill-rule="evenodd" clip-rule="evenodd" d="M144.64 57.6339L81.7169 -5.67744L81.8861 -5.84766L144.809 57.4637L144.64 57.6339Z" fill="#A9A9A9"/>
<path fill-rule="evenodd" clip-rule="evenodd" d="M144.64 55.7081L81.7169 -7.60322L81.8861 -7.77344L144.809 55.5379L144.64 55.7081Z" fill="#A9A9A9"/>
<path fill-rule="evenodd" clip-rule="evenodd" d="M144.64 53.7823L81.7169 -9.529L81.8861 -9.69922L144.809 53.6121L144.64 53.7823Z" fill="#A9A9A9"/>
<path fill-rule="evenodd" clip-rule="evenodd" d="M144.64 51.8585L81.7169 -11.4528L81.8861 -11.623L144.809 51.6883L144.64 51.8585Z" fill="#A9A9A9"/>
<path fill-rule="evenodd" clip-rule="evenodd" d="M144.64 49.9288L81.7169 -13.3825L81.8861 -13.5527L144.809 49.7586L144.64 49.9288Z" fill="#A9A9A9"/>
<path fill-rule="evenodd" clip-rule="evenodd" d="M144.64 48.005L81.7169 -15.3063L81.8861 -15.4766L144.809 47.8348L144.64 48.005Z" fill="#A9A9A9"/>
<path fill-rule="evenodd" clip-rule="evenodd" d="M144.64 46.0812L81.7169 -17.2302L81.8861 -17.4004L144.809 45.9109L144.64 46.0812Z" fill="#A9A9A9"/>
<path fill-rule="evenodd" clip-rule="evenodd" d="M144.64 44.1534L81.7169 -19.1579L81.8861 -19.3281L144.809 43.9832L144.64 44.1534Z" fill="#A9A9A9"/>
<path fill-rule="evenodd" clip-rule="evenodd" d="M144.64 42.2267L81.7169 -21.0847L81.8861 -21.2549L144.809 42.0564L144.64 42.2267Z" fill="#A9A9A9"/>
<path fill-rule="evenodd" clip-rule="evenodd" d="M144.64 42.2267L81.7169 -21.0847L81.8861 -21.2549L144.809 42.0564L144.64 42.2267Z" fill="#A9A9A9"/>
<path fill-rule="evenodd" clip-rule="evenodd" d="M144.64 40.3028L81.7169 -23.0085L81.8861 -23.1787L144.809 40.1326L144.64 40.3028Z" fill="#A9A9A9"/>
<path fill-rule="evenodd" clip-rule="evenodd" d="M144.64 38.3761L81.7169 -24.9352L81.8861 -25.1055L144.809 38.2059L144.64 38.3761Z" fill="#A9A9A9"/>
<path fill-rule="evenodd" clip-rule="evenodd" d="M144.64 36.4522L81.7169 -26.8591L81.8861 -27.0293L144.809 36.282L144.64 36.4522Z" fill="#A9A9A9"/>
<path fill-rule="evenodd" clip-rule="evenodd" d="M144.64 34.5245L81.7169 -28.7868L81.8861 -28.957L144.809 34.3543L144.64 34.5245Z" fill="#A9A9A9"/>
<path fill-rule="evenodd" clip-rule="evenodd" d="M144.64 32.5978L81.7169 -30.7136L81.8861 -30.8838L144.809 32.4275L144.64 32.5978Z" fill="#A9A9A9"/>
<path fill-rule="evenodd" clip-rule="evenodd" d="M144.64 30.673L81.7169 -32.6384L81.8861 -32.8086L144.809 30.5027L144.64 30.673Z" fill="#A9A9A9"/>
<path fill-rule="evenodd" clip-rule="evenodd" d="M147.033 31.1535L81.7169 -34.5651L81.8861 -34.7354L147.202 30.9833L147.033 31.1535Z" fill="#A9A9A9"/>
<path fill-rule="evenodd" clip-rule="evenodd" d="M158.278 40.5438L81.7169 -36.489L81.8861 -36.6592L158.447 40.3736L158.278 40.5438Z" fill="#A9A9A9"/>
<path fill-rule="evenodd" clip-rule="evenodd" d="M152.057 32.3572L81.7169 -38.4167L81.8861 -38.5869L152.226 32.187L152.057 32.3572Z" fill="#A9A9A9"/>
<path fill-rule="evenodd" clip-rule="evenodd" d="M153.254 31.6362L123.826 2.02667L123.995 1.85645L153.423 31.4659L153.254 31.6362Z" fill="#A9A9A9"/>
<path fill-rule="evenodd" clip-rule="evenodd" d="M153.254 29.7104L123.826 0.100884L123.995 -0.0693359L153.423 29.5401L153.254 29.7104Z" fill="#A9A9A9"/>
<path fill-rule="evenodd" clip-rule="evenodd" d="M153.254 27.7826L123.826 -1.82685L123.995 -1.99707L153.423 27.6124L153.254 27.7826Z" fill="#A9A9A9"/>
<path fill-rule="evenodd" clip-rule="evenodd" d="M166.173 38.8591L123.826 -3.7497L123.995 -3.91992L166.343 38.6889L166.173 38.8591Z" fill="#A9A9A9"/>
<path fill-rule="evenodd" clip-rule="evenodd" d="M166.173 36.9313L123.826 -5.67744L123.995 -5.84766L166.343 36.7611L166.173 36.9313Z" fill="#A9A9A9"/>
<path fill-rule="evenodd" clip-rule="evenodd" d="M166.173 35.0056L123.826 -7.60322L123.995 -7.77344L166.343 34.8353L166.173 35.0056Z" fill="#A9A9A9"/>
<path fill-rule="evenodd" clip-rule="evenodd" d="M166.173 33.0798L123.826 -9.529L123.995 -9.69922L166.343 32.9096L166.173 33.0798Z" fill="#A9A9A9"/>
<path fill-rule="evenodd" clip-rule="evenodd" d="M166.173 31.1559L123.826 -11.4528L123.995 -11.623L166.343 30.9857L166.173 31.1559Z" fill="#A9A9A9"/>
<path fill-rule="evenodd" clip-rule="evenodd" d="M166.173 29.2263L123.826 -13.3825L123.995 -13.5527L166.343 29.056L166.173 29.2263Z" fill="#A9A9A9"/>
<path fill-rule="evenodd" clip-rule="evenodd" d="M166.173 27.3024L123.826 -15.3063L123.995 -15.4766L166.343 27.1322L166.173 27.3024Z" fill="#A9A9A9"/>
<path fill-rule="evenodd" clip-rule="evenodd" d="M166.173 25.3786L123.826 -17.2302L123.995 -17.4004L166.343 25.2084L166.173 25.3786Z" fill="#A9A9A9"/>
<path fill-rule="evenodd" clip-rule="evenodd" d="M166.173 23.4509L123.826 -19.1579L123.995 -19.3281L166.343 23.2807L166.173 23.4509Z" fill="#A9A9A9"/>
<path fill-rule="evenodd" clip-rule="evenodd" d="M186.269 41.7452L151.338 6.59893L151.507 6.42871L186.438 41.5749L186.269 41.7452Z" fill="#A9A9A9"/>
<path fill-rule="evenodd" clip-rule="evenodd" d="M186.269 39.8213L151.338 4.6751L151.507 4.50488L186.438 39.6511L186.269 39.8213Z" fill="#A9A9A9"/>
<path fill-rule="evenodd" clip-rule="evenodd" d="M213.305 65.0948L151.338 2.74639L151.507 2.57617L213.474 64.9246L213.305 65.0948Z" fill="#A9A9A9"/>
<path fill-rule="evenodd" clip-rule="evenodd" d="M186.269 35.9698L151.338 0.82354L151.507 0.65332L186.438 35.7995L186.269 35.9698Z" fill="#A9A9A9"/>
<path fill-rule="evenodd" clip-rule="evenodd" d="M212.108 60.0416L151.338 -1.10322L151.507 -1.27344L212.277 59.8713L212.108 60.0416Z" fill="#A9A9A9"/>
<path fill-rule="evenodd" clip-rule="evenodd" d="M186.269 32.1162L151.338 -3.02998L151.507 -3.2002L186.438 31.946L186.269 32.1162Z" fill="#A9A9A9"/>
<path fill-rule="evenodd" clip-rule="evenodd" d="M186.269 30.1914L151.338 -4.95478L151.507 -5.125L186.438 30.0212L186.269 30.1914Z" fill="#A9A9A9"/>
<path fill-rule="evenodd" clip-rule="evenodd" d="M186.269 28.2666L151.338 -6.87958L151.507 -7.0498L186.438 28.0964L186.269 28.2666Z" fill="#A9A9A9"/>
<path fill-rule="evenodd" clip-rule="evenodd" d="M227.899 68.2265L151.338 -8.80634L151.507 -8.97656L228.068 68.0562L227.899 68.2265Z" fill="#A9A9A9"/>
<path fill-rule="evenodd" clip-rule="evenodd" d="M229.574 67.9848L151.338 -10.7331L151.507 -10.9033L229.743 67.8146L229.574 67.9848Z" fill="#A9A9A9"/>
<path fill-rule="evenodd" clip-rule="evenodd" d="M231.488 67.9878L151.338 -12.656L151.507 -12.8262L231.657 67.8175L231.488 67.9878Z" fill="#A9A9A9"/>
<path fill-rule="evenodd" clip-rule="evenodd" d="M233.402 67.9849L151.338 -14.5847L151.507 -14.7549L233.571 67.8147L233.402 67.9849Z" fill="#A9A9A9"/>
<path fill-rule="evenodd" clip-rule="evenodd" d="M234.837 67.5054L151.338 -16.5085L151.507 -16.6787L235.006 67.3352L234.837 67.5054Z" fill="#A9A9A9"/>
<path fill-rule="evenodd" clip-rule="evenodd" d="M235.076 65.8165L151.338 -18.4382L151.507 -18.6084L235.246 65.6462L235.076 65.8165Z" fill="#A9A9A9"/>
<path fill-rule="evenodd" clip-rule="evenodd" d="M236.752 65.5776L156.602 -15.0661L156.772 -15.2363L236.921 65.4074L236.752 65.5776Z" fill="#A9A9A9"/>
<path fill-rule="evenodd" clip-rule="evenodd" d="M236.751 63.6539L151.338 -22.2858L151.507 -22.4561L236.92 63.4837L236.751 63.6539Z" fill="#A9A9A9"/>
<path fill-rule="evenodd" clip-rule="evenodd" d="M237.469 62.4483L151.338 -24.2136L151.507 -24.3838L237.638 62.2781L237.469 62.4483Z" fill="#A9A9A9"/>
<path fill-rule="evenodd" clip-rule="evenodd" d="M236.512 59.5596L151.338 -26.1394L151.507 -26.3096L236.681 59.3894L236.512 59.5596Z" fill="#A9A9A9"/>
<path fill-rule="evenodd" clip-rule="evenodd" d="M237.708 58.8385L151.338 -28.0642L151.507 -28.2344L237.877 58.6682L237.708 58.8385Z" fill="#A9A9A9"/>
<path fill-rule="evenodd" clip-rule="evenodd" d="M238.426 57.6329L151.338 -29.9919L151.507 -30.1621L238.595 57.4627L238.426 57.6329Z" fill="#A9A9A9"/>
<path fill-rule="evenodd" clip-rule="evenodd" d="M239.144 56.4313L151.338 -31.9157L151.507 -32.0859L239.313 56.261L239.144 56.4313Z" fill="#A9A9A9"/>
<path fill-rule="evenodd" clip-rule="evenodd" d="M239.622 54.9879L151.338 -33.8405L151.507 -34.0107L239.791 54.8177L239.622 54.9879Z" fill="#A9A9A9"/>
<path fill-rule="evenodd" clip-rule="evenodd" d="M242.254 55.7108L192.729 5.88018L192.898 5.70996L242.423 55.5406L242.254 55.7108Z" fill="#A9A9A9"/>
<path fill-rule="evenodd" clip-rule="evenodd" d="M242.254 53.7801L192.729 3.94952L192.898 3.7793L242.423 53.6099L242.254 53.7801Z" fill="#A9A9A9"/>
<path fill-rule="evenodd" clip-rule="evenodd" d="M242.254 51.8573L192.729 2.02667L192.898 1.85645L242.423 51.687L242.254 51.8573Z" fill="#A9A9A9"/>
<path fill-rule="evenodd" clip-rule="evenodd" d="M242.254 49.9315L192.729 0.100884L192.898 -0.0693359L242.423 49.7613L242.254 49.9315Z" fill="#A9A9A9"/>
<path fill-rule="evenodd" clip-rule="evenodd" d="M242.254 48.0037L192.729 -1.82685L192.898 -1.99707L242.423 47.8335L242.254 48.0037Z" fill="#A9A9A9"/>
<path fill-rule="evenodd" clip-rule="evenodd" d="M242.254 46.0809L192.729 -3.7497L192.898 -3.91992L242.423 45.9107L242.254 46.0809Z" fill="#A9A9A9"/>
<path fill-rule="evenodd" clip-rule="evenodd" d="M242.254 44.1531L192.729 -5.67744L192.898 -5.84766L242.423 43.9829L242.254 44.1531Z" fill="#A9A9A9"/>
<path fill-rule="evenodd" clip-rule="evenodd" d="M254.696 54.7464L205.41 5.15655L205.579 4.98633L254.865 54.5762L254.696 54.7464Z" fill="#A9A9A9"/>
<path fill-rule="evenodd" clip-rule="evenodd" d="M254.696 52.8197L205.41 3.22979L205.579 3.05957L254.865 52.6494L254.696 52.8197Z" fill="#A9A9A9"/>
<path fill-rule="evenodd" clip-rule="evenodd" d="M254.696 50.8958L205.41 1.30596L205.579 1.13574L254.865 50.7256L254.696 50.8958Z" fill="#A9A9A9"/>
<path fill-rule="evenodd" clip-rule="evenodd" d="M254.696 48.9681L205.41 -0.621772L205.579 -0.791992L254.865 48.7979L254.696 48.9681Z" fill="#A9A9A9"/>
<path fill-rule="evenodd" clip-rule="evenodd" d="M254.696 47.0423L205.41 -2.54755L205.579 -2.71777L254.865 46.8721L254.696 47.0423Z" fill="#A9A9A9"/>
<path fill-rule="evenodd" clip-rule="evenodd" d="M254.696 45.1165L205.41 -4.47333L205.579 -4.64355L254.865 44.9463L254.696 45.1165Z" fill="#A9A9A9"/>
<path fill-rule="evenodd" clip-rule="evenodd" d="M254.696 43.1898L205.41 -6.40009L205.579 -6.57031L254.865 43.0196L254.696 43.1898Z" fill="#A9A9A9"/>
<path fill-rule="evenodd" clip-rule="evenodd" d="M254.696 41.264L205.41 -8.32587L205.579 -8.49609L254.865 41.0938L254.696 41.264Z" fill="#A9A9A9"/>
<path fill-rule="evenodd" clip-rule="evenodd" d="M254.696 39.3402L205.41 -10.2497L205.579 -10.4199L254.865 39.17L254.696 39.3402Z" fill="#A9A9A9"/>
<path fill-rule="evenodd" clip-rule="evenodd" d="M254.696 37.4124L205.41 -12.1774L205.579 -12.3477L254.865 37.2422L254.696 37.4124Z" fill="#A9A9A9"/>
<path fill-rule="evenodd" clip-rule="evenodd" d="M254.696 35.4876L205.41 -14.1022L205.579 -14.2725L254.865 35.3174L254.696 35.4876Z" fill="#A9A9A9"/>
<path fill-rule="evenodd" clip-rule="evenodd" d="M267.854 46.801L226.224 4.91436L226.393 4.74414L268.023 46.6307L267.854 46.801Z" fill="#A9A9A9"/>
<path fill-rule="evenodd" clip-rule="evenodd" d="M267.854 44.8761L226.224 2.98956L226.393 2.81934L268.023 44.7059L267.854 44.8761Z" fill="#A9A9A9"/>
<path fill-rule="evenodd" clip-rule="evenodd" d="M267.854 42.9494L226.224 1.0628L226.393 0.892578L268.023 42.7792L267.854 42.9494Z" fill="#A9A9A9"/>
<path fill-rule="evenodd" clip-rule="evenodd" d="M267.854 41.0236L226.224 -0.862983L226.393 -1.0332L268.023 40.8534L267.854 41.0236Z" fill="#A9A9A9"/>
<path fill-rule="evenodd" clip-rule="evenodd" d="M267.854 39.0988L226.224 -2.78779L226.393 -2.95801L268.023 38.9286L267.854 39.0988Z" fill="#A9A9A9"/>
<path fill-rule="evenodd" clip-rule="evenodd" d="M267.854 37.1711L226.224 -4.71552L226.393 -4.88574L268.023 37.0009L267.854 37.1711Z" fill="#A9A9A9"/>
<path fill-rule="evenodd" clip-rule="evenodd" d="M267.854 35.2472L226.224 -6.63935L226.393 -6.80957L268.023 35.077L267.854 35.2472Z" fill="#A9A9A9"/>
<path fill-rule="evenodd" clip-rule="evenodd" d="M267.854 33.3205L226.224 -8.56611L226.393 -8.73633L268.023 33.1503L267.854 33.3205Z" fill="#A9A9A9"/>
<path fill-rule="evenodd" clip-rule="evenodd" d="M267.854 31.3947L226.224 -10.4919L226.393 -10.6621L268.023 31.2245L267.854 31.3947Z" fill="#A9A9A9"/>
<path fill-rule="evenodd" clip-rule="evenodd" d="M267.854 29.4689L226.224 -12.4177L226.393 -12.5879L268.023 29.2987L267.854 29.4689Z" fill="#A9A9A9"/>
<path fill-rule="evenodd" clip-rule="evenodd" d="M267.855 27.5442L247.997 7.56377L248.166 7.39355L268.024 27.3739L267.855 27.5442Z" fill="#A9A9A9"/>
<path fill-rule="evenodd" clip-rule="evenodd" d="M267.855 25.6164L247.997 5.63604L248.166 5.46582L268.024 25.4462L267.855 25.6164Z" fill="#A9A9A9"/>
<path fill-rule="evenodd" clip-rule="evenodd" d="M267.855 23.6936L247.997 3.71319L248.166 3.54297L268.024 23.5234L267.855 23.6936Z" fill="#A9A9A9"/>
<path fill-rule="evenodd" clip-rule="evenodd" d="M283.885 37.8946L247.997 1.78545L248.166 1.61523L284.054 37.7244L283.885 37.8946Z" fill="#A9A9A9"/>
<path fill-rule="evenodd" clip-rule="evenodd" d="M283.885 35.9678L247.997 -0.141303L248.166 -0.311523L284.054 35.7976L283.885 35.9678Z" fill="#A9A9A9"/>
<path fill-rule="evenodd" clip-rule="evenodd" d="M283.885 34.043L247.997 -2.06611L248.166 -2.23633L284.054 33.8728L283.885 34.043Z" fill="#A9A9A9"/>
<path fill-rule="evenodd" clip-rule="evenodd" d="M283.885 32.1182L247.997 -3.99091L248.166 -4.16113L284.054 31.948L283.885 32.1182Z" fill="#A9A9A9"/>
<path fill-rule="evenodd" clip-rule="evenodd" d="M283.885 30.1905L247.997 -5.91865L248.166 -6.08887L284.054 30.0203L283.885 30.1905Z" fill="#A9A9A9"/>
<path fill-rule="evenodd" clip-rule="evenodd" d="M283.885 28.2657L247.997 -7.84345L248.166 -8.01367L284.054 28.0955L283.885 28.2657Z" fill="#A9A9A9"/>
<path fill-rule="evenodd" clip-rule="evenodd" d="M283.885 26.3409L247.997 -9.76826L248.166 -9.93848L284.054 26.1707L283.885 26.3409Z" fill="#A9A9A9"/>
<path fill-rule="evenodd" clip-rule="evenodd" d="M283.885 24.4141L247.997 -11.695L248.166 -11.8652L284.054 24.2439L283.885 24.4141Z" fill="#A9A9A9"/>
<path fill-rule="evenodd" clip-rule="evenodd" d="M283.885 22.4874L247.997 -13.6218L248.166 -13.792L284.054 22.3171L283.885 22.4874Z" fill="#A9A9A9"/>
<path fill-rule="evenodd" clip-rule="evenodd" d="M283.885 20.5645L247.997 -15.5446L248.166 -15.7148L284.054 20.3943L283.885 20.5645Z" fill="#A9A9A9"/>
<path fill-rule="evenodd" clip-rule="evenodd" d="M283.885 18.6368L247.997 -17.4724L248.166 -17.6426L284.054 18.4665L283.885 18.6368Z" fill="#A9A9A9"/>
<path fill-rule="evenodd" clip-rule="evenodd" d="M332.932 66.0611L247.997 -19.3972L248.166 -19.5674L333.101 65.8909L332.932 66.0611Z" fill="#A9A9A9"/>
<path fill-rule="evenodd" clip-rule="evenodd" d="M308.766 39.732C294.231 25.077 278.86 9.61151 275.512 6.36274L275.678 6.18945C279.028 9.44032 294.402 24.9083 308.936 39.5619C316.203 46.8891 323.261 54.0132 328.502 59.3054C331.123 61.9515 333.289 64.1397 334.8 65.6664L337.167 68.0575C337.167 68.0578 337.167 68.058 337.146 68.0797C337.133 68.0923 337.114 68.112 337.083 68.1431C336.998 68.228 336.998 68.2278 336.997 68.2274L334.631 65.8363C333.119 64.3096 330.953 62.1214 328.332 59.4753C323.091 54.1831 316.033 47.0591 308.766 39.732Z" fill="#A9A9A9"/>
<path fill-rule="evenodd" clip-rule="evenodd" d="M309.604 38.6448C294.65 23.5686 278.86 7.68183 275.512 4.43305L275.678 4.25977C279.028 7.51063 294.82 23.3999 309.773 38.4748C317.25 46.0126 324.517 53.3473 329.915 58.7975C332.614 61.5226 334.846 63.7766 336.403 65.3494L338.842 67.8129C338.842 67.8133 338.842 67.8135 338.757 67.8985C338.711 67.945 338.69 67.966 338.68 67.9754C338.672 67.9831 338.672 67.983 338.672 67.9828L336.233 65.5193C334.676 63.9465 332.445 61.6925 329.746 58.9674C324.347 53.5172 317.08 46.1826 309.604 38.6448Z" fill="#A9A9A9"/>
<path fill-rule="evenodd" clip-rule="evenodd" d="M310.68 37.8043C295.188 22.1864 278.86 5.758 275.512 2.50922L275.678 2.33594C279.028 5.58681 295.359 22.0177 310.85 37.6342C318.595 45.4428 326.132 53.0484 331.732 58.7017C334.532 61.5284 336.848 63.867 338.464 65.499L340.995 68.0556C340.995 68.0558 340.995 68.056 340.985 68.0662C340.975 68.0767 340.954 68.098 340.911 68.1412C340.826 68.2261 340.826 68.2259 340.825 68.2254L340.823 68.2234L338.294 65.6689C336.678 64.0369 334.362 61.6983 331.562 58.8716C325.962 53.2183 318.426 45.6129 310.68 37.8043Z" fill="#A9A9A9"/>
<path fill-rule="evenodd" clip-rule="evenodd" d="M311.518 36.722C295.607 20.6829 278.86 3.83319 275.512 0.584419L275.678 0.411133C279.028 3.662 295.777 20.5142 311.687 36.552C319.642 44.5712 327.388 52.3874 333.145 58.1987C336.023 61.1044 338.405 63.5088 340.066 65.1869L342.669 67.8159C342.67 67.8163 342.67 67.8166 342.585 67.9015C342.501 67.9864 342.5 67.9862 342.5 67.9857L342.498 67.9837L339.897 65.3568C338.235 63.6787 335.854 61.2743 332.975 58.3686C327.218 52.5573 319.473 44.7412 311.518 36.722Z" fill="#A9A9A9"/>
<path fill-rule="evenodd" clip-rule="evenodd" d="M312.116 35.3981C295.906 19.058 278.86 1.90741 275.512 -1.34136L275.678 -1.51465C279.028 1.73622 296.076 18.8893 312.285 35.228C320.39 43.3977 328.285 51.3643 334.154 57.2885C337.089 60.2506 339.517 62.702 341.211 64.413L343.864 67.0916L343.866 67.0937C343.866 67.0942 343.866 67.0944 343.782 67.1793C343.697 67.2643 343.697 67.264 343.696 67.2636L341.042 64.5829C339.347 62.872 336.919 60.4205 333.985 57.4584C328.116 51.5343 320.22 43.5677 312.116 35.3981Z" fill="#A9A9A9"/>
<path fill-rule="evenodd" clip-rule="evenodd" d="M312.116 33.4703C295.906 17.1302 278.86 -0.0203211 275.512 -3.2691L275.678 -3.44238C279.028 -0.191515 296.076 16.9616 312.285 33.3003C320.39 41.47 328.285 49.4366 334.154 55.3607C337.089 58.3228 339.517 60.7743 341.211 62.4853L343.864 65.1638L343.866 65.166C343.866 65.1664 343.866 65.1667 343.782 65.2516C343.697 65.3366 343.697 65.3363 343.696 65.3358L341.042 62.6552C339.347 60.9442 336.919 58.4928 333.985 55.5307C328.116 49.6066 320.22 41.64 312.116 33.4703Z" fill="#A9A9A9"/>
<path fill-rule="evenodd" clip-rule="evenodd" d="M312.116 31.5465C295.906 15.2064 278.86 -1.94415 275.512 -5.19292L275.678 -5.36621C279.028 -2.11534 296.076 15.0378 312.285 31.3764C320.39 39.5462 328.285 47.5127 334.154 53.4369C337.089 56.399 339.517 58.8505 341.211 60.5614L343.864 63.24L343.866 63.2421C343.866 63.2426 343.866 63.2428 343.782 63.3278C343.697 63.4127 343.697 63.4125 343.696 63.412L341.042 60.7313C339.347 59.0204 336.919 56.5689 333.985 53.6069C328.116 47.6827 320.22 39.7162 312.116 31.5465Z" fill="#A9A9A9"/>
<path fill-rule="evenodd" clip-rule="evenodd" d="M312.116 29.6188C295.906 13.2787 278.86 -3.87188 275.512 -7.12066L275.678 -7.29395C279.028 -4.04308 296.076 13.11 312.285 29.4487C320.39 37.6184 328.285 45.585 334.154 51.5092C337.089 54.4713 339.517 56.9227 341.211 58.6337L343.864 61.3123L343.866 61.3144C343.866 61.3149 343.866 61.3151 343.782 61.4C343.697 61.485 343.697 61.4847 343.696 61.4843L341.042 58.8036C339.347 57.0927 336.919 54.6412 333.985 51.6791C328.116 45.755 320.22 37.7884 312.116 29.6188Z" fill="#A9A9A9"/>
<path fill-rule="evenodd" clip-rule="evenodd" d="M312.116 27.6949C295.906 11.3549 278.86 -5.79571 275.512 -9.04449L275.678 -9.21777C279.028 -5.96691 296.076 11.1862 312.285 27.5249C320.39 35.6946 328.285 43.6612 334.154 49.5854C337.089 52.5474 339.517 54.9989 341.211 56.7099L343.864 59.3884L343.866 59.3906C343.866 59.391 343.866 59.3913 343.782 59.4762C343.697 59.5612 343.697 59.5609 343.696 59.5604L341.042 56.8798C339.347 55.1688 336.919 52.7174 333.985 49.7553C328.116 43.8312 320.22 35.8646 312.116 27.6949Z" fill="#A9A9A9"/>
<path fill-rule="evenodd" clip-rule="evenodd" d="M312.116 25.7653C295.906 9.42517 278.86 -7.7254 275.512 -10.9742L275.678 -11.1475C279.028 -7.89659 296.076 9.25651 312.285 25.5952C320.39 33.7649 328.285 41.7315 334.154 47.6557C337.089 50.6177 339.517 53.0692 341.211 54.7802L343.864 57.4587L343.866 57.4609C343.866 57.4613 343.866 57.4616 343.782 57.5465C343.697 57.6315 343.697 57.6312 343.696 57.6308L341.042 54.9501C339.347 53.2392 336.919 50.7877 333.985 47.8256C328.116 41.9015 320.22 33.9349 312.116 25.7653Z" fill="#A9A9A9"/>
<path fill-rule="evenodd" clip-rule="evenodd" d="M312.116 23.8414C295.906 7.50134 278.86 -9.64923 275.512 -12.898L275.678 -13.0713C279.028 -9.82042 296.076 7.33269 312.285 23.6714C320.39 31.8411 328.285 39.8077 334.154 45.7318C337.089 48.6939 339.517 51.1454 341.211 52.8564L343.864 55.5349L343.866 55.537C343.866 55.5375 343.866 55.5378 343.782 55.6227C343.697 55.7076 343.697 55.7074 343.696 55.7069L341.042 53.0263C339.347 51.3153 336.919 48.8639 333.985 45.9018C328.116 39.9776 320.22 32.0111 312.116 23.8414Z" fill="#A9A9A9"/>
<path fill-rule="evenodd" clip-rule="evenodd" d="M312.116 21.9176C295.906 5.57751 278.86 -11.5731 275.512 -14.8218L275.678 -14.9951C279.028 -11.7442 296.076 5.40886 312.285 21.7475C320.39 29.9172 328.285 37.8838 334.154 43.808C337.089 46.7701 339.517 49.2216 341.211 50.9325L343.864 53.6111L343.866 53.6132C343.866 53.6137 343.866 53.6139 343.782 53.6989C343.697 53.7838 343.697 53.7836 343.696 53.7831L341.042 51.1024C339.347 49.3915 336.919 46.94 333.985 43.978C328.116 38.0538 320.22 30.0873 312.116 21.9176Z" fill="#A9A9A9"/>
<path fill-rule="evenodd" clip-rule="evenodd" d="M312.116 19.9899C295.906 3.64978 278.86 -13.5008 275.512 -16.7496L275.678 -16.9229C279.028 -13.672 296.076 3.48112 312.285 19.8198C320.39 27.9895 328.285 35.9561 334.154 41.8803C337.089 44.8424 339.517 47.2938 341.211 49.0048L343.864 51.6833L343.866 51.6855C343.866 51.686 343.866 51.6862 343.782 51.7711C343.697 51.8561 343.697 51.8558 343.696 51.8554L341.042 49.1747C339.347 47.4638 336.919 45.0123 333.985 42.0502C328.116 36.1261 320.22 28.1595 312.116 19.9899Z" fill="#A9A9A9"/>
<path fill-rule="evenodd" clip-rule="evenodd" d="M312.116 18.0651C295.906 1.72497 278.86 -15.4256 275.512 -18.6744L275.678 -18.8477C279.028 -15.5968 296.076 1.55632 312.285 17.895C320.39 26.0647 328.285 34.0313 334.154 39.9555C337.089 42.9176 339.517 45.369 341.211 47.08L343.864 49.7585L343.866 49.7607C343.866 49.7611 343.866 49.7614 343.782 49.8463C343.697 49.9313 343.697 49.931 343.696 49.9306L341.042 47.2499C339.347 45.539 336.919 43.0875 333.985 40.1254C328.116 34.2013 320.22 26.2347 312.116 18.0651Z" fill="#A9A9A9"/>
<path fill-rule="evenodd" clip-rule="evenodd" d="M312.116 16.1383C295.906 -0.201784 278.86 -17.3524 275.512 -20.6011L275.678 -20.7744C279.028 -17.5235 296.076 -0.37044 312.285 15.9682C320.39 24.138 328.285 32.1045 334.154 38.0287C337.089 40.9908 339.517 43.4423 341.211 45.1532L343.864 47.8318L343.866 47.8339C343.866 47.8344 343.866 47.8346 343.782 47.9196C343.697 48.0045 343.697 48.0043 343.696 48.0038L341.042 45.3231C339.347 43.6122 336.919 41.1607 333.985 38.1987C328.116 32.2745 320.22 24.308 312.116 16.1383Z" fill="#A9A9A9"/>
<path fill-rule="evenodd" clip-rule="evenodd" d="M312.116 14.2125C295.906 -2.12757 278.86 -19.2781 275.512 -22.5269L275.678 -22.7002C279.028 -19.4493 296.076 -2.29622 312.285 14.0425C320.39 22.2122 328.285 30.1788 334.154 36.1029C337.089 39.065 339.517 41.5165 341.211 43.2275L343.864 45.906L343.866 45.9081C343.866 45.9086 343.866 45.9088 343.782 45.9938C343.697 46.0787 343.697 46.0785 343.696 46.078L341.042 43.3974C339.347 41.6864 336.919 39.235 333.985 36.2729C328.116 30.3487 320.22 22.3822 312.116 14.2125Z" fill="#A9A9A9"/>
<path fill-rule="evenodd" clip-rule="evenodd" d="M312.116 12.2877C295.906 -4.05237 278.86 -21.2029 275.512 -24.4517L275.678 -24.625C279.028 -21.3741 296.076 -4.22103 312.285 12.1176C320.39 20.2874 328.285 28.254 334.154 34.1781C337.089 37.1402 339.517 39.5917 341.211 41.3027L343.864 43.9812L343.866 43.9833C343.866 43.9838 343.866 43.984 343.782 44.069C343.697 44.1539 343.697 44.1537 343.696 44.1532L341.042 41.4726C339.347 39.7616 336.919 37.3101 333.985 34.3481C328.116 28.4239 320.22 20.4574 312.116 12.2877Z" fill="#A9A9A9"/>
<path fill-rule="evenodd" clip-rule="evenodd" d="M312.116 10.3629C295.906 -5.97717 278.86 -23.1277 275.512 -26.3765L275.678 -26.5498C279.028 -23.2989 296.076 -6.14583 312.285 10.1928C320.39 18.3626 328.285 26.3292 334.154 32.2533C337.089 35.2154 339.517 37.6669 341.211 39.3778L343.864 42.0564L343.866 42.0585C343.866 42.059 343.866 42.0592 343.782 42.1442C343.697 42.2291 343.697 42.2289 343.696 42.2284L341.042 39.5478C339.347 37.8368 336.919 35.3853 333.985 32.4233C328.116 26.4991 320.22 18.5326 312.116 10.3629Z" fill="#A9A9A9"/>
<path fill-rule="evenodd" clip-rule="evenodd" d="M312.116 8.43322C295.906 -7.90686 278.86 -25.0574 275.512 -28.3062L275.678 -28.4795C279.028 -25.2286 296.076 -8.07552 312.285 8.26316C320.39 16.4329 328.285 24.3995 334.154 30.3236C337.089 33.2857 339.517 35.7372 341.211 37.4482L343.864 40.1267L343.866 40.1288C343.866 40.1293 343.866 40.1295 343.782 40.2145C343.697 40.2994 343.697 40.2992 343.696 40.2987L341.042 37.6181C339.347 35.9071 336.919 33.4557 333.985 30.4936C328.116 24.5694 320.22 16.6029 312.116 8.43322Z" fill="#A9A9A9"/>
<path fill-rule="evenodd" clip-rule="evenodd" d="M312.116 6.50939C295.906 -9.83069 278.86 -26.9813 275.512 -30.23L275.678 -30.4033C279.028 -27.1525 296.076 -9.99935 312.285 6.33933C320.39 14.509 328.285 22.4756 334.154 28.3998C337.089 31.3619 339.517 33.8134 341.211 35.5243L343.864 38.2029L343.866 38.205C343.866 38.2055 343.866 38.2057 343.782 38.2907C343.697 38.3756 343.697 38.3754 343.696 38.3749L341.042 35.6942C339.347 33.9833 336.919 31.5318 333.985 28.5698C328.116 22.6456 320.22 14.6791 312.116 6.50939Z" fill="#A9A9A9"/>
<path fill-rule="evenodd" clip-rule="evenodd" d="M312.116 4.58459C295.906 -11.7555 278.86 -28.9061 275.512 -32.1548L275.678 -32.3281C279.028 -29.0773 296.076 -11.9242 312.285 4.41452C320.39 12.5842 328.285 20.5508 334.154 26.475C337.089 29.4371 339.517 31.8886 341.211 33.5995L343.864 36.2781L343.866 36.2802C343.866 36.2807 343.866 36.2809 343.782 36.3659C343.697 36.4508 343.697 36.4506 343.696 36.4501L341.042 33.7694C339.347 32.0585 336.919 29.607 333.985 26.645C328.116 20.7208 320.22 12.7542 312.116 4.58459Z" fill="#A9A9A9"/>
<path fill-rule="evenodd" clip-rule="evenodd" d="M312.116 2.65881C295.906 -13.6813 278.86 -30.8318 275.512 -34.0806L275.678 -34.2539C279.028 -31.003 296.076 -13.8499 312.285 2.48874C320.39 10.6585 328.285 18.6251 334.154 24.5492C337.089 27.5113 339.517 29.9628 341.211 31.6737L343.864 34.3523L343.866 34.3544C343.866 34.3549 343.866 34.3551 343.782 34.4401C343.697 34.525 343.697 34.5248 343.696 34.5243L341.042 31.8437C339.347 30.1327 336.919 27.6812 333.985 24.7192C328.116 18.795 320.22 10.8285 312.116 2.65881Z" fill="#A9A9A9"/>
<path fill-rule="evenodd" clip-rule="evenodd" d="M312.116 0.732048C295.906 -15.608 278.86 -32.7586 275.512 -36.0074L275.678 -36.1807C279.028 -32.9298 296.076 -15.7767 312.285 0.561985C320.39 8.7317 328.285 16.6983 334.154 22.6225C337.089 25.5845 339.517 28.036 341.211 29.747L343.864 32.4255L343.866 32.4277C343.866 32.4281 343.866 32.4284 343.782 32.5133C343.697 32.5983 343.697 32.598 343.696 32.5976L341.042 29.9169C339.347 28.2059 336.919 25.7545 333.985 22.7924C328.116 16.8683 320.22 8.90171 312.116 0.732048Z" fill="#A9A9A9"/>
<path fill-rule="evenodd" clip-rule="evenodd" d="M312.116 -1.19178C295.906 -17.5319 278.86 -34.6824 275.512 -37.9312L275.678 -38.1045C279.028 -34.8536 296.076 -17.7005 312.285 -1.36184C320.39 6.80787 328.285 14.7745 334.154 20.6986C337.089 23.6607 339.517 26.1122 341.211 27.8232L343.864 30.5017L343.866 30.5038C343.866 30.5043 343.866 30.5045 343.782 30.5895C343.697 30.6744 343.697 30.6742 343.696 30.6737L341.042 27.9931C339.347 26.2821 336.919 23.8307 333.985 20.8686C328.116 14.9444 320.22 6.97788 312.116 -1.19178Z" fill="#A9A9A9"/>
<path fill-rule="evenodd" clip-rule="evenodd" d="M312.116 -3.12049C295.906 -19.4606 278.86 -36.6111 275.512 -39.8599L275.678 -40.0332C279.028 -36.7823 296.076 -19.6292 312.285 -3.29055C320.39 4.87916 328.285 12.8458 334.154 18.7699C337.089 21.732 339.517 24.1835 341.211 25.8944L343.864 28.573L343.866 28.5751C343.866 28.5756 343.866 28.5758 343.782 28.6608C343.697 28.7457 343.697 28.7455 343.696 28.745L341.042 26.0644C339.347 24.3534 336.919 21.9019 333.985 18.9399C328.116 13.0157 320.22 5.04917 312.116 -3.12049Z" fill="#A9A9A9"/>
<path fill-rule="evenodd" clip-rule="evenodd" d="M312.116 -5.04432C295.906 -21.3844 278.86 -38.535 275.512 -41.7837L275.678 -41.957C279.028 -38.7062 296.076 -21.5531 312.285 -5.21438C320.39 2.95533 328.285 10.9219 334.154 16.8461C337.089 19.8082 339.517 22.2597 341.211 23.9706L343.864 26.6492L343.866 26.6513C343.866 26.6518 343.866 26.652 343.782 26.737C343.697 26.8219 343.697 26.8217 343.696 26.8212L341.042 24.1405C339.347 22.4296 336.919 19.9781 333.985 17.016C328.116 11.0919 320.22 3.12534 312.116 -5.04432Z" fill="#A9A9A9"/>
<path fill-rule="evenodd" clip-rule="evenodd" d="M312.116 -6.97205C295.906 -23.3121 278.86 -40.4627 275.512 -43.7115L275.678 -43.8848C279.028 -40.6339 296.076 -23.4808 312.285 -7.14212C320.39 1.0276 328.285 8.99419 334.154 14.9184C337.089 17.8804 339.517 20.3319 341.211 22.0429L343.864 24.7214L343.866 24.7236C343.866 24.724 343.866 24.7243 343.782 24.8092C343.697 24.8942 343.697 24.8939 343.696 24.8935L341.042 22.2128C339.347 20.5018 336.919 18.0504 333.985 15.0883C328.116 9.16417 320.22 1.19761 312.116 -6.97205Z" fill="#A9A9A9"/>
<path fill-rule="evenodd" clip-rule="evenodd" d="M312.116 -8.89783C295.906 -25.2379 278.86 -42.3885 275.512 -45.6373L275.678 -45.8105C279.028 -42.5597 296.076 -25.4066 312.285 -9.0679C320.39 -0.898182 328.285 7.06841 334.154 12.9926C337.089 15.9547 339.517 18.4061 341.211 20.1171L343.864 22.7957L343.866 22.7978C343.866 22.7983 343.866 22.7985 343.782 22.8834C343.697 22.9684 343.697 22.9681 343.696 22.9677L341.042 20.287C339.347 18.5761 336.919 16.1246 333.985 13.1625C328.116 7.23839 320.22 -0.728172 312.116 -8.89783Z" fill="#A9A9A9"/>
<path fill-rule="evenodd" clip-rule="evenodd" d="M312.116 -10.8217C295.906 -27.1617 278.86 -44.3123 275.512 -47.5611L275.678 -47.7344C279.028 -44.4835 296.076 -27.3304 312.285 -10.9917C320.39 -2.82201 328.285 5.14458 334.154 11.0688C337.089 14.0308 339.517 16.4823 341.211 18.1933L343.864 20.8718L343.866 20.874C343.866 20.8744 343.866 20.8747 343.782 20.9596C343.697 21.0446 343.697 21.0443 343.696 21.0438L341.042 18.3632C339.347 16.6522 336.919 14.2008 333.985 11.2387C328.116 5.31456 320.22 -2.652 312.116 -10.8217Z" fill="#A9A9A9"/>
<path fill-rule="evenodd" clip-rule="evenodd" d="M312.116 -12.7504C295.906 -29.0905 278.86 -46.241 275.512 -49.4898L275.678 -49.6631C279.028 -46.4122 296.076 -29.2591 312.285 -12.9204C320.39 -4.75072 328.285 3.21587 334.154 9.14004C337.089 12.1021 339.517 14.5536 341.211 16.2646L343.864 18.9431L343.866 18.9453C343.866 18.9457 343.866 18.946 343.782 19.0309C343.697 19.1159 343.697 19.1156 343.696 19.1151L341.042 16.4345C339.347 14.7235 336.919 12.2721 333.985 9.30999C328.116 3.38585 320.22 -4.58071 312.116 -12.7504Z" fill="#A9A9A9"/>
<path fill-rule="evenodd" clip-rule="evenodd" d="M312.116 -14.6732C295.906 -31.0133 278.86 -48.1639 275.512 -51.4127L275.678 -51.5859C279.028 -48.3351 296.076 -31.182 312.285 -14.8433C320.39 -6.67357 328.285 1.29302 334.154 7.21719C337.089 10.1793 339.517 12.6308 341.211 14.3417L343.864 17.0203L343.866 17.0224C343.866 17.0229 343.866 17.0231 343.782 17.108C343.697 17.193 343.697 17.1928 343.696 17.1923L341.042 14.5116C339.347 12.8007 336.919 10.3492 333.985 7.38714C328.116 1.463 320.22 -6.50356 312.116 -14.6732Z" fill="#A9A9A9"/>
<path fill-rule="evenodd" clip-rule="evenodd" d="M312.116 -16.6C295.906 -32.9401 278.86 -50.0906 275.512 -53.3394L275.678 -53.5127C279.028 -50.2618 296.076 -33.1087 312.285 -16.77C320.39 -8.60033 328.285 -0.633736 334.154 5.29043C337.089 8.25251 339.517 10.704 341.211 12.415L343.864 15.0935L343.866 15.0956C343.866 15.0961 343.866 15.0963 343.782 15.1813C343.697 15.2662 343.697 15.266 343.696 15.2655L341.042 12.5849C339.347 10.8739 336.919 8.42245 333.985 5.46038C328.116 -0.46376 320.22 -8.43032 312.116 -16.6Z" fill="#A9A9A9"/>
<path fill-rule="evenodd" clip-rule="evenodd" d="M312.116 -18.5267C295.906 -34.8668 278.86 -52.0174 275.512 -55.2662L275.678 -55.4395C279.028 -52.1886 296.076 -35.0355 312.285 -18.6968C320.39 -10.5271 328.285 -2.56049 334.154 3.36367C337.089 6.32576 339.517 8.77724 341.211 10.4882L343.864 13.1667L343.866 13.1689C343.866 13.1693 343.866 13.1696 343.782 13.2545C343.697 13.3395 343.697 13.3392 343.696 13.3388L341.042 10.6581C339.347 8.94716 336.919 6.49569 333.985 3.53363C328.116 -2.39052 320.22 -10.3571 312.116 -18.5267Z" fill="#A9A9A9"/>
<path fill-rule="evenodd" clip-rule="evenodd" d="M312.116 -20.4515C295.906 -36.7916 278.86 -53.9422 275.512 -57.191L275.678 -57.3643C279.028 -54.1134 296.076 -36.9603 312.285 -20.6216C320.39 -12.4519 328.285 -4.4853 334.154 1.43887C337.089 4.40095 339.517 6.85243 341.211 8.56339L343.864 11.2419L343.866 11.2441C343.866 11.2445 343.866 11.2448 343.782 11.3297C343.697 11.4147 343.697 11.4144 343.696 11.414L341.042 8.7333C339.347 7.02235 336.919 4.57089 333.985 1.60882C328.116 -4.31532 320.22 -12.2819 312.116 -20.4515Z" fill="#A9A9A9"/>
<path fill-rule="evenodd" clip-rule="evenodd" d="M312.116 -20.4515C295.906 -36.7916 278.86 -53.9422 275.512 -57.191L275.678 -57.3643C279.028 -54.1134 296.076 -36.9603 312.285 -20.6216C320.39 -12.4519 328.285 -4.4853 334.154 1.43887C337.089 4.40095 339.517 6.85243 341.211 8.56339L343.864 11.2419L343.866 11.2441C343.866 11.2445 343.866 11.2448 343.782 11.3297C343.697 11.4147 343.697 11.4144 343.696 11.414L341.042 8.7333C339.347 7.02235 336.919 4.57089 333.985 1.60882C328.116 -4.31532 320.22 -12.2819 312.116 -20.4515Z" fill="#A9A9A9"/>
<path fill-rule="evenodd" clip-rule="evenodd" d="M166.173 33.0798L123.826 -9.529L123.995 -9.69922L166.343 32.9096L166.173 33.0798Z" fill="#A9A9A9"/>
<path fill-rule="evenodd" clip-rule="evenodd" d="M31.7126 34.5222L8.74438 11.4124L8.91356 11.2422L31.8818 34.352L31.7126 34.5222Z" fill="#A9A9A9"/>
<path fill-rule="evenodd" clip-rule="evenodd" d="M31.7126 36.4519L8.74438 13.3421L8.91356 13.1719L31.8818 36.2817L31.7126 36.4519Z" fill="#A9A9A9"/>
<path fill-rule="evenodd" clip-rule="evenodd" d="M31.7126 38.3758L8.74438 15.2659L8.91356 15.0957L31.8818 38.2055L31.7126 38.3758Z" fill="#A9A9A9"/>
<path fill-rule="evenodd" clip-rule="evenodd" d="M31.7126 40.3025L8.74438 17.1927L8.91356 17.0225L31.8818 40.1323L31.7126 40.3025Z" fill="#A9A9A9"/>
<path fill-rule="evenodd" clip-rule="evenodd" d="M31.7126 42.2273L8.74438 19.1175L8.91356 18.9473L31.8818 42.0571L31.7126 42.2273Z" fill="#A9A9A9"/>
<path fill-rule="evenodd" clip-rule="evenodd" d="M31.7126 44.1541L8.74438 21.0442L8.91356 20.874L31.8818 43.9839L31.7126 44.1541Z" fill="#A9A9A9"/>
<path fill-rule="evenodd" clip-rule="evenodd" d="M31.7126 46.0808L8.74438 22.971L8.91356 22.8008L31.8818 45.9106L31.7126 46.0808Z" fill="#A9A9A9"/>
<path fill-rule="evenodd" clip-rule="evenodd" d="M31.7126 48.0056L8.74438 24.8958L8.91356 24.7256L31.8818 47.8354L31.7126 48.0056Z" fill="#A9A9A9"/>
<path fill-rule="evenodd" clip-rule="evenodd" d="M31.7126 49.9285L8.74438 26.8187L8.91356 26.6484L31.8818 49.7583L31.7126 49.9285Z" fill="#A9A9A9"/>
<path fill-rule="evenodd" clip-rule="evenodd" d="M31.7126 51.8582L8.74438 28.7483L8.91356 28.5781L31.8818 51.688L31.7126 51.8582Z" fill="#A9A9A9"/>
<path fill-rule="evenodd" clip-rule="evenodd" d="M31.7126 53.783L8.74438 30.6731L8.91356 30.5029L31.8818 53.6128L31.7126 53.783Z" fill="#A9A9A9"/>
<path fill-rule="evenodd" clip-rule="evenodd" d="M31.7126 55.7078L8.74438 32.598L8.91356 32.4277L31.8818 55.5376L31.7126 55.7078Z" fill="#A9A9A9"/>
<path fill-rule="evenodd" clip-rule="evenodd" d="M31.7126 57.6355L8.74438 34.5257L8.91356 34.3555L31.8818 57.4653L31.7126 57.6355Z" fill="#A9A9A9"/>
<path fill-rule="evenodd" clip-rule="evenodd" d="M31.7126 59.5594L8.74438 36.4495L8.91356 36.2793L31.8818 59.3891L31.7126 59.5594Z" fill="#A9A9A9"/>
<path fill-rule="evenodd" clip-rule="evenodd" d="M31.7126 61.4851L8.74438 38.3753L8.91356 38.2051L31.8818 61.3149L31.7126 61.4851Z" fill="#A9A9A9"/>
<path fill-rule="evenodd" clip-rule="evenodd" d="M31.7126 63.4119L8.74438 40.3021L8.91356 40.1318L31.8818 63.2417L31.7126 63.4119Z" fill="#A9A9A9"/>
<path fill-rule="evenodd" clip-rule="evenodd" d="M31.7126 65.3367L8.74438 42.2269L8.91356 42.0566L31.8818 65.1665L31.7126 65.3367Z" fill="#A9A9A9"/>
<path fill-rule="evenodd" clip-rule="evenodd" d="M31.7126 67.2635L8.74438 44.1536L8.91356 43.9834L31.8818 67.0932L31.7126 67.2635Z" fill="#A9A9A9"/>
<path fill-rule="evenodd" clip-rule="evenodd" d="M31.7126 69.1912L8.74438 46.0814L8.91356 45.9111L31.8818 69.021L31.7126 69.1912Z" fill="#A9A9A9"/>
<path fill-rule="evenodd" clip-rule="evenodd" d="M31.7126 71.114L8.74438 48.0042L8.91356 47.834L31.8818 70.9438L31.7126 71.114Z" fill="#A9A9A9"/>
<path fill-rule="evenodd" clip-rule="evenodd" d="M31.7126 73.0418L8.74438 49.9319L8.91356 49.7617L31.8818 72.8716L31.7126 73.0418Z" fill="#A9A9A9"/>
<path fill-rule="evenodd" clip-rule="evenodd" d="M31.7126 74.9656L8.74438 51.8558L8.91356 51.6855L31.8818 74.7954L31.7126 74.9656Z" fill="#A9A9A9"/>
<path fill-rule="evenodd" clip-rule="evenodd" d="M31.7126 76.8924L8.74438 53.7825L8.91356 53.6123L31.8818 76.7221L31.7126 76.8924Z" fill="#A9A9A9"/>
<path fill-rule="evenodd" clip-rule="evenodd" d="M31.7126 78.8201L8.74438 55.7103L8.91356 55.54L31.8818 78.6499L31.7126 78.8201Z" fill="#A9A9A9"/>
<path fill-rule="evenodd" clip-rule="evenodd" d="M31.7126 80.7449L8.74438 57.6351L8.91356 57.4648L31.8818 80.5747L31.7126 80.7449Z" fill="#A9A9A9"/>
<path fill-rule="evenodd" clip-rule="evenodd" d="M31.7126 82.6678L8.74438 59.5579L8.91356 59.3877L31.8818 82.4975L31.7126 82.6678Z" fill="#A9A9A9"/>
<path fill-rule="evenodd" clip-rule="evenodd" d="M15.2042 67.9853L8.74438 61.4856L8.91356 61.3154L15.3734 67.8151L15.2042 67.9853Z" fill="#A9A9A9"/>
<path fill-rule="evenodd" clip-rule="evenodd" d="M13.2894 67.9862L8.74438 63.4124L8.91353 63.2422L13.4586 67.816L13.2894 67.9862Z" fill="#A9A9A9"/>
<path fill-rule="evenodd" clip-rule="evenodd" d="M11.6149 68.225L8.74438 65.3362L8.91353 65.166L11.7841 68.0547L11.6149 68.225Z" fill="#A9A9A9"/>
<path fill-rule="evenodd" clip-rule="evenodd" d="M9.70084 68.2274L8.74438 67.2649L8.91346 67.0947L9.86992 68.0572L9.70084 68.2274Z" fill="#A9A9A9"/>
</g>
<path fill-rule="evenodd" clip-rule="evenodd" d="M9.47789 9.47968H343.522V67.4193H335.575C335.34 39.6544 312.919 17.1987 285.22 17.1987C257.521 17.1987 235.06 39.6541 234.824 67.4193H226.875C226.64 39.6544 204.219 17.1987 176.52 17.1987C148.822 17.1987 126.36 39.6541 126.125 67.4193H118.176C117.94 39.6544 95.5193 17.1987 67.8205 17.1987C40.122 17.1987 17.6608 39.6541 17.4251 67.4193H9.47789V9.47968ZM9.23895 9.00041H9V67.4577V67.6592V67.899H9.23894H17.9027V67.4505C18.1219 39.935 40.3764 17.6784 67.8205 17.6784C95.4006 17.6784 117.7 40.1563 117.7 67.8607L117.7 67.899H126.362H126.601V67.7994C126.634 40.1234 148.96 17.6784 176.52 17.6784C203.996 17.6784 226.231 39.9873 226.398 67.5479V67.899H235.061H235.3L235.3 67.8607C235.3 40.1566 257.639 17.6784 285.22 17.6784C312.671 17.6784 334.89 39.9468 335.097 67.4727V67.899H343.761H344V67.6592V67.4577V9.00171H343.761V9L9.23895 9.00041ZM287.83 64.7691C287.83 66.2889 286.603 67.5203 285.091 67.5203C283.579 67.5203 282.352 66.2889 282.352 64.7691C282.352 63.2493 283.579 62.0179 285.091 62.0179C286.603 62.0179 287.83 63.2493 287.83 64.7691ZM288.308 64.7691C288.308 66.5535 286.867 68 285.091 68C283.315 68 281.874 66.5535 281.874 64.7691C281.874 62.9847 283.315 61.5382 285.091 61.5382C286.867 61.5382 288.308 62.9847 288.308 64.7691Z" fill="black"/>
<path d="M291.5 60.2998L294.5 63.2998" stroke="#A9A9A9" stroke-width="0.5"/>
<path d="M291.5 66.2002L294.5 69.2002" stroke="#A9A9A9" stroke-width="0.5"/>
</svg>
